<svg width="32" height="32" viewBox="0 0 32 32" fill="none" xmlns="http://www.w3.org/2000/svg">
<path d="M0 8C0 3.58172 3.58172 0 8 0H24C28.4183 0 32 3.58172 32 8V24C32 28.4183 28.4183 32 24 32H8C3.58172 32 0 28.4183 0 24V8Z" fill="url(#paint0_linear_943_1259)"/>
<path d="M14.2647 13.5154L7.81592 20.4303C7.55166 20.7215 7.40527 21.1006 7.40527 21.4938C7.40527 21.8871 7.55166 22.2662 7.81592 22.5574L9.30504 24.1524C9.43035 24.2912 9.5834 24.4022 9.75429 24.4781C9.92518 24.5541 10.1101 24.5933 10.2971 24.5933C10.4841 24.5933 10.669 24.5541 10.8399 24.4781C11.0108 24.4022 11.1639 24.2912 11.2892 24.1524L17.7352 17.2389M14.2647 13.5154L14.7597 12.9833C15.0239 12.6921 15.1703 12.3129 15.1703 11.9197C15.1703 11.5265 15.0239 11.1473 14.7597 10.8561L13.2719 9.26115L13.7669 8.72765C15.4114 6.96627 18.0762 6.96627 19.7207 8.72765L24.1825 13.5154C24.7312 14.1025 24.7312 15.0554 24.1825 15.6425L22.6962 17.2375C22.5709 17.3761 22.4179 17.4869 22.2471 17.5627C22.0764 17.6385 21.8916 17.6777 21.7048 17.6777C21.518 17.6777 21.3332 17.6385 21.1624 17.5627C20.9917 17.4869 20.8387 17.3761 20.7134 17.2375L20.217 16.7068C20.0917 16.568 19.9387 16.457 19.7678 16.381C19.5969 16.3051 19.412 16.2658 19.225 16.2658C19.038 16.2658 18.8531 16.3051 18.6822 16.381C18.5113 16.457 18.3582 16.568 18.2329 16.7068L17.7379 17.2389M14.2647 13.5154L17.7352 17.2375" stroke="white" stroke-width="1.5" stroke-linecap="round" stroke-linejoin="round"/>
<defs>
<linearGradient id="paint0_linear_943_1259" x1="0" y1="0" x2="32" y2="32" gradientUnits="userSpaceOnUse">
<stop stop-color="#86DCC2"/>
<stop offset="1" stop-color="#0F3D34"/>
</linearGradient>
</defs>
</svg>
